<svg width="391" height="100" viewBox="0 0 391 100" fill="none" xmlns="http://www.w3.org/2000/svg">
<g clip-path="url(#clip0_87_514)">
<path d="M-3.196 82.824C-5.236 82.824 -7.14 82.552 -8.908 82.008C-10.676 81.5093 -12.104 80.648 -13.192 79.424C-14.28 78.2 -14.824 76.5453 -14.824 74.46C-14.824 73.7347 -14.756 73.0093 -14.62 72.284C-14.5293 72.012 -14.3707 71.876 -14.144 71.876C-13.872 71.876 -13.736 71.9893 -13.736 72.216C-13.736 72.4427 -13.736 72.6693 -13.736 72.896C-13.7813 73.168 -13.804 73.4173 -13.804 73.644C-13.804 75.5933 -13.2373 77.18 -12.104 78.404C-11.016 79.628 -9.588 80.5347 -7.82 81.124C-6.052 81.7133 -4.17067 82.008 -2.176 82.008C0 82.008 2.108 81.6907 4.148 81.056C6.324 80.376 8.38667 79.356 10.336 77.996C12.3307 76.6813 14.2347 75.14 16.048 73.372C12.8293 72.556 10.0413 71.128 7.684 69.088C5.32667 67.048 3.51333 64.5773 2.244 61.676C1.02 58.7747 0.408 55.692 0.408 52.428C0.408 49.4813 0.906667 46.6027 1.904 43.792C3.128 40.3467 4.91867 37.0147 7.276 33.796C9.63333 30.5773 12.7613 27.6533 16.66 25.024C20.5587 22.3947 25.3867 20.2413 31.144 18.564C36.9467 16.8867 43.86 15.8667 51.884 15.504C52.836 15.4587 53.9693 15.436 55.284 15.436C56.644 15.436 57.9587 15.436 59.228 15.436C60.1347 15.2093 60.928 15.096 61.608 15.096C62.3333 15.096 62.9907 15.1867 63.58 15.368C63.716 15.4133 63.784 15.5493 63.784 15.776C63.8293 15.8213 63.852 15.912 63.852 16.048C63.852 16.3653 63.6707 16.524 63.308 16.524C61.676 16.5693 60.3613 17.136 59.364 18.224C58.3667 19.312 57.3693 20.7173 56.372 22.44C55.7373 23.664 55.2613 25.0693 54.944 26.656C54.6267 28.2427 54.4227 29.9653 54.332 31.824C55.6013 32.8667 56.576 34.068 57.256 35.428C57.9813 36.788 58.2987 38.2613 58.208 39.848C58.208 40.1653 58.0493 40.324 57.732 40.324C57.3693 40.324 57.188 40.1427 57.188 39.78C57.2787 38.4653 57.052 37.2413 56.508 36.108C56.0093 34.9293 55.284 33.864 54.332 32.912C54.196 36.0853 54.0827 39.4853 53.992 43.112C53.9467 46.7387 53.448 50.2747 52.496 53.72C53.72 53.6293 54.8987 53.4933 56.032 53.312C57.664 50.6373 59.364 47.7587 61.132 44.676C62.9 41.5933 64.7133 38.4427 66.572 35.224C68.4307 32.0053 70.3573 28.9 72.352 25.908C74.3467 22.916 76.432 20.196 78.608 17.748C81.1013 14.9373 83.5947 12.8973 86.088 11.628C88.5813 10.3587 90.8707 9.724 92.956 9.724C95.3587 9.724 97.3307 10.5173 98.872 12.104C100.459 13.6453 101.252 15.7533 101.252 18.428C101.252 21.3747 100.096 24.8653 97.784 28.9C95.5173 32.8893 91.6187 37.1733 86.088 41.752C82.552 44.6533 78.4947 47.1013 73.916 49.096C72.1027 52.632 70.6747 55.8507 69.632 58.752C68.6347 61.608 68.136 63.9653 68.136 65.824C68.136 67.1387 68.408 68.1587 68.952 68.884C69.5413 69.6547 70.4253 70.04 71.604 70.04C73.0093 70.04 74.5733 69.36 76.296 68C78.064 66.6853 79.8093 64.8947 81.532 62.628C83.2547 60.316 84.7733 57.7547 86.088 54.944C86.224 54.7173 86.3827 54.604 86.564 54.604C86.8813 54.604 86.972 54.7853 86.836 55.148C85.5213 57.868 84.0027 60.4973 82.28 63.036C80.6027 65.5747 78.7667 67.6373 76.772 69.224C74.7773 70.856 72.6693 71.672 70.448 71.672C68.136 71.672 66.5267 70.9693 65.62 69.564C64.7133 68.204 64.26 66.4813 64.26 64.396C64.26 62.4467 64.5547 60.3387 65.144 58.072C65.7333 55.8053 66.4587 53.6747 67.32 51.68C65.7787 52.1787 64.2147 52.632 62.628 53.04C61.0867 53.4027 59.5227 53.72 57.936 53.992C55.9413 56.7573 53.924 59.2507 51.884 61.472C49.844 63.6933 47.8493 65.4387 45.9 66.708C43.996 67.9773 42.2053 68.5667 40.528 68.476C40.1653 68.476 39.984 68.34 39.984 68.068C39.984 67.8867 40.0747 67.728 40.256 67.592C42.16 66.2773 43.6787 64.5093 44.812 62.288C45.9907 60.0213 46.92 57.5507 47.6 54.876H45.832C44.1547 54.876 42.4773 54.74 40.8 54.468C39.1227 54.1507 37.4907 53.7653 35.904 53.312C33.9547 57.0293 31.7333 60.5653 29.24 63.92C26.7467 67.2747 24.004 70.2893 21.012 72.964C23.868 72.9187 26.4973 72.216 28.9 70.856C31.3027 69.496 32.8667 67.4787 33.592 64.804C33.6373 64.5773 33.796 64.464 34.068 64.464C34.476 64.464 34.6347 64.668 34.544 65.076C33.9547 67.1613 32.912 68.8613 31.416 70.176C29.92 71.536 28.152 72.5107 26.112 73.1C24.1173 73.7347 22.0547 74.0067 19.924 73.916C17.34 76.0467 14.5747 77.8373 11.628 79.288C8.72667 80.784 5.59867 81.804 2.244 82.348C1.38267 82.484 0.498667 82.5973 -0.408 82.688C-1.36 82.7787 -2.28933 82.824 -3.196 82.824ZM58.752 52.904C60.3387 52.5867 61.88 52.224 63.376 51.816C64.9173 51.3627 66.436 50.8867 67.932 50.388C69.428 47.26 71.1507 44.1547 73.1 41.072C75.0947 37.9893 77.112 35.02 79.152 32.164C81.2373 29.308 83.1867 26.7013 85 24.344C86.8133 21.9413 88.2867 19.924 89.42 18.292C89.6467 18.02 89.8507 17.884 90.032 17.884C90.3493 17.884 90.508 18.0653 90.508 18.428C90.508 18.6547 90.44 18.836 90.304 18.972C88.808 20.9213 87.1307 23.4373 85.272 26.52C83.4133 29.5573 81.5547 32.912 79.696 36.584C77.8373 40.2107 76.1373 43.86 74.596 47.532C76.2733 46.6707 77.8827 45.764 79.424 44.812C80.9653 43.8147 82.4387 42.7493 83.844 41.616C87.6067 38.624 90.644 35.6547 92.956 32.708C95.3133 29.7613 97.036 26.996 98.124 24.412C99.2573 21.7827 99.824 19.516 99.824 17.612C99.824 15.9347 99.416 14.62 98.6 13.668C97.8293 12.6707 96.7187 12.172 95.268 12.172C93.7267 12.172 91.8907 12.7613 89.76 13.94C87.6293 15.0733 85.2267 16.9773 82.552 19.652C80.4213 21.7827 78.3133 24.2307 76.228 26.996C74.188 29.7613 72.1707 32.6627 70.176 35.7C68.1813 38.692 66.232 41.6613 64.328 44.608C62.424 47.5547 60.5653 50.2973 58.752 52.836V52.904ZM16.864 72.556C19.72 69.564 22.3267 66.2093 24.684 62.492C27.0867 58.7747 29.2627 55.1707 31.212 51.68C28.356 50.4107 26.044 48.8013 24.276 46.852C22.508 44.8573 21.7147 42.5227 21.896 39.848C22.1227 36.8107 23.0747 34.3627 24.752 32.504C26.4293 30.6 28.5373 29.1947 31.076 28.288C33.6147 27.3813 36.2893 26.928 39.1 26.928C41.1853 26.928 43.3387 27.1773 45.56 27.676C47.5093 25.0013 49.3907 22.7347 51.204 20.876C53.0627 19.0173 54.8533 17.5893 56.576 16.592C56.1227 16.592 55.6467 16.592 55.148 16.592C54.6947 16.5467 54.2187 16.524 53.72 16.524C49.64 16.524 45.5373 16.864 41.412 17.544C37.2867 18.1787 33.2747 19.176 29.376 20.536C25.4773 21.896 21.828 23.6867 18.428 25.908C15.0733 28.084 12.1267 30.6907 9.588 33.728C7.04933 36.7653 5.07733 40.3013 3.672 44.336C2.62933 47.3733 2.108 50.2973 2.108 53.108C2.108 56.236 2.67467 59.16 3.808 61.88C4.98667 64.6 6.68667 66.8893 8.908 68.748C11.1293 70.6067 13.7813 71.876 16.864 72.556ZM51.272 29.716C51.4987 28.6733 51.7707 27.676 52.088 26.724C52.4507 25.7267 52.8587 24.82 53.312 24.004C53.992 22.8253 54.944 21.5107 56.168 20.06C57.392 18.564 58.752 17.4987 60.248 16.864L58.956 16.728C57.324 17.5893 55.6013 19.0627 53.788 21.148C52.02 23.188 50.2293 25.636 48.416 28.492C49.4587 28.8093 50.4107 29.2173 51.272 29.716ZM31.892 50.456L35.7 43.52C37.2867 40.6187 38.8507 37.8987 40.392 35.36C41.9787 32.8213 43.52 30.5093 45.016 28.424C44.2 28.2427 43.384 28.1293 42.568 28.084C41.752 27.9933 40.936 27.948 40.12 27.948C37.6267 27.948 35.2467 28.356 32.98 29.172C30.7133 29.988 28.832 31.28 27.336 33.048C25.8853 34.7707 25.0467 37.0373 24.82 39.848C24.684 42.16 25.2507 44.2227 26.52 46.036C27.8347 47.804 29.6253 49.2773 31.892 50.456ZM45.832 53.856H47.804C48.5747 50.5013 49.096 47.0787 49.368 43.588C49.64 40.052 50.0027 36.9467 50.456 34.272L51.068 30.532C50.6147 30.3053 50.116 30.0787 49.572 29.852C49.0733 29.58 48.552 29.3533 48.008 29.172C46.4667 31.6653 44.948 34.408 43.452 37.4C42.0013 40.392 40.528 43.4973 39.032 46.716L36.448 52.292C37.8533 52.7 39.3493 53.0627 40.936 53.38C42.5227 53.6973 44.1547 53.856 45.832 53.856ZM45.492 65.28C47.0787 64.736 48.688 63.4893 50.32 61.54C51.952 59.5453 53.652 57.1653 55.42 54.4C54.876 54.4453 54.332 54.5133 53.788 54.604C53.244 54.6493 52.7 54.6947 52.156 54.74C51.5667 56.6893 50.728 58.548 49.64 60.316C48.5973 62.084 47.2147 63.7387 45.492 65.28ZM87.1101 68.34C85.5688 68.34 84.5035 67.9093 83.9141 67.048C83.3701 66.1867 83.0981 65.1213 83.0981 63.852C83.0981 62.5373 83.3248 61.1547 83.7781 59.704C84.2315 58.2533 84.6621 57.0973 85.0701 56.236C86.5208 53.1987 88.5381 50.8867 91.1221 49.3C93.7515 47.668 96.4488 46.852 99.2141 46.852C99.5768 46.852 99.9395 46.852 100.302 46.852C100.71 46.852 101.095 46.8973 101.458 46.988C102.365 47.124 102.818 47.2373 102.818 47.328C102.818 47.4187 102.478 47.5093 101.798 47.6C101.163 47.6907 100.687 47.736 100.37 47.736C98.1488 47.736 96.1541 48.3253 94.3861 49.504C92.6635 50.6827 91.1901 52.1787 89.9661 53.992C88.7421 55.8053 87.7901 57.664 87.1101 59.568C86.4755 61.4267 86.1581 63.036 86.1581 64.396C86.1581 65.2573 86.2941 65.96 86.5661 66.504C86.8835 67.048 87.3368 67.32 87.9261 67.32C88.5608 67.32 89.2861 66.8893 90.1021 66.028C90.9181 65.1667 91.7115 64.124 92.4821 62.9C93.2528 61.6307 93.9555 60.4067 94.5901 59.228C95.2248 58.004 95.7008 57.0747 96.0181 56.44L98.9421 50.32C99.7128 50.1387 100.483 49.9347 101.254 49.708C102.07 49.436 102.841 49.1413 103.566 48.824C102.795 50.1387 102.047 51.5213 101.322 52.972C100.642 54.4227 99.9395 55.8507 99.2141 57.256C98.6701 58.2987 98.1261 59.5227 97.5821 60.928C97.0835 62.3333 96.8341 63.6027 96.8341 64.736V65.008C96.8341 65.3707 96.8795 65.7787 96.9701 66.232C97.0608 66.64 97.3101 66.844 97.7181 66.844C98.2168 66.844 98.8515 66.5493 99.6221 65.96C100.393 65.3253 100.937 64.8493 101.254 64.532C102.705 63.0813 103.951 61.472 104.994 59.704C106.082 57.936 107.079 56.1453 107.986 54.332C108.077 54.2413 108.145 54.196 108.19 54.196C108.553 54.196 108.689 54.3773 108.598 54.74C108.598 54.74 108.485 54.944 108.258 55.352C108.077 55.76 107.963 55.9867 107.918 56.032C107.057 57.6187 106.195 59.1373 105.334 60.588C104.473 62.0387 103.453 63.4213 102.274 64.736C101.549 65.4613 100.665 66.232 99.6221 67.048C98.5795 67.864 97.5368 68.272 96.4941 68.272C95.4968 68.272 94.7941 67.8867 94.3861 67.116C93.9781 66.3 93.7741 65.3933 93.7741 64.396C93.7741 63.7613 93.8195 63.1493 93.9101 62.56C94.0461 61.9253 94.1821 61.3813 94.3181 60.928C94.0008 61.744 93.4341 62.7413 92.6181 63.92C91.8475 65.0987 90.9635 66.1413 89.9661 67.048C89.0141 67.9093 88.0621 68.34 87.1101 68.34ZM107.604 68.272C106.561 68.272 105.813 67.8867 105.36 67.116C104.907 66.3453 104.68 65.4387 104.68 64.396C104.68 62.9907 104.975 61.5853 105.564 60.18C106.516 57.6867 107.4 55.5333 108.216 53.72C109.077 51.9067 109.939 50.1613 110.8 48.484H108.964C108.783 48.484 108.692 48.3933 108.692 48.212C108.692 48.076 108.76 47.9173 108.896 47.736C109.032 47.5547 109.191 47.464 109.372 47.464H111.344L116.24 37.672C117.011 37.4907 117.827 37.2867 118.688 37.06C119.595 36.788 120.411 36.4933 121.136 36.176C120.411 37.4 119.413 39.0093 118.144 41.004C116.875 42.9533 115.583 45.1067 114.268 47.464H119.096C119.277 47.464 119.368 47.5547 119.368 47.736C119.368 47.872 119.3 48.0307 119.164 48.212C119.028 48.3933 118.869 48.484 118.688 48.484H113.656C112.251 50.9773 110.981 53.5613 109.848 56.236C108.76 58.9107 108.035 61.4267 107.672 63.784C107.627 63.9653 107.604 64.1693 107.604 64.396C107.604 64.5773 107.604 64.736 107.604 64.872C107.604 66.096 108.012 66.708 108.828 66.708C109.327 66.708 109.893 66.504 110.528 66.096C111.163 65.6427 111.775 65.1213 112.364 64.532C113.815 63.0813 115.061 61.472 116.104 59.704C117.192 57.936 118.189 56.1453 119.096 54.332C119.187 54.2413 119.255 54.196 119.3 54.196C119.617 54.196 119.776 54.3773 119.776 54.74C119.731 54.74 119.595 54.944 119.368 55.352C119.187 55.76 119.073 55.9867 119.028 56.032C118.212 57.6187 117.373 59.1373 116.512 60.588C115.651 62.0387 114.608 63.4213 113.384 64.736C112.704 65.4613 111.843 66.232 110.8 67.048C109.757 67.864 108.692 68.272 107.604 68.272ZM127.736 68.34C125.832 68.34 124.88 67.2747 124.88 65.144C124.88 63.376 125.515 61.1547 126.784 58.48C127.192 57.7093 127.691 56.8027 128.28 55.76C128.915 54.672 129.459 53.6293 129.912 52.632C130.411 51.5893 130.66 50.7733 130.66 50.184C130.66 49.5493 130.343 49.232 129.708 49.232C128.892 49.232 128.008 49.708 127.056 50.66C126.104 51.5667 125.152 52.7453 124.2 54.196C123.294 55.6013 122.432 57.0973 121.616 58.684C120.846 60.2707 120.166 61.744 119.576 63.104C119.032 64.4187 118.647 65.4387 118.42 66.164C118.239 66.8893 117.944 67.3427 117.536 67.524C117.174 67.7053 116.743 67.796 116.244 67.796C115.791 67.7507 115.315 67.8187 114.816 68C115.768 64.872 116.788 61.5627 117.876 58.072C118.964 54.536 120.143 50.9773 121.412 47.396C122.682 43.8147 124.064 40.392 125.56 37.128C127.102 33.8187 128.824 30.8493 130.728 28.22C131.907 26.6333 133.086 25.432 134.264 24.616C135.488 23.8 136.576 23.392 137.528 23.392C138.254 23.392 138.82 23.6413 139.228 24.14C139.682 24.5933 139.908 25.296 139.908 26.248C139.908 26.9733 139.75 27.88 139.432 28.968C139.115 30.0107 138.571 31.1893 137.8 32.504C136.894 34.136 135.806 35.8133 134.536 37.536C133.312 39.2587 132.02 40.8907 130.66 42.432C129.346 43.9733 128.076 45.3107 126.852 46.444C125.674 47.532 124.676 48.28 123.86 48.688C123.724 49.0053 123.475 49.6853 123.112 50.728C122.75 51.7707 122.364 52.9493 121.956 54.264C121.594 55.5333 121.231 56.7573 120.868 57.936C121.73 56.304 122.727 54.6947 123.86 53.108C125.039 51.476 126.24 50.1387 127.464 49.096C128.688 48.008 129.799 47.464 130.796 47.464C132.474 47.464 133.312 48.212 133.312 49.708C133.312 50.6147 133.063 51.7707 132.564 53.176C132.066 54.5813 131.431 56.2133 130.66 58.072C129.844 59.976 129.232 61.5853 128.824 62.9C128.462 64.1693 128.28 65.1667 128.28 65.892C128.28 66.7533 128.575 67.184 129.164 67.184C129.799 67.184 130.819 66.5947 132.224 65.416C133.539 64.2373 134.763 62.764 135.896 60.996C137.03 59.1827 138.39 56.7347 139.976 53.652C140.067 53.5613 140.135 53.516 140.18 53.516C140.316 53.516 140.452 53.584 140.588 53.72C140.77 53.856 140.815 53.9693 140.724 54.06C139.047 57.188 137.528 59.8173 136.168 61.948C134.854 64.0787 133.539 65.688 132.224 66.776C130.91 67.8187 129.414 68.34 127.736 68.34ZM124.268 47.26C125.538 46.4893 126.943 45.2653 128.484 43.588C130.071 41.8653 131.612 39.9387 133.108 37.808C134.604 35.6773 135.828 33.66 136.78 31.756C137.37 30.5773 137.778 29.5347 138.004 28.628C138.276 27.676 138.412 26.86 138.412 26.18C138.412 24.9107 138.05 24.276 137.324 24.276C136.78 24.276 136.078 24.684 135.216 25.5C134.4 26.316 133.471 27.6533 132.428 29.512C131.567 31.0533 130.683 32.7533 129.776 34.612C128.915 36.4253 128.099 38.216 127.328 39.984C126.558 41.7067 125.9 43.2253 125.356 44.54C124.812 45.8547 124.45 46.7613 124.268 47.26ZM142.748 68.34C140.98 68.34 140.096 67.388 140.096 65.484C140.096 63.8973 140.799 61.5853 142.204 58.548C142.612 57.732 143.065 56.7573 143.564 55.624C144.108 54.4907 144.561 53.4027 144.924 52.36C145.332 51.272 145.536 50.388 145.536 49.708C145.536 49.0733 145.309 48.756 144.856 48.756C144.312 48.756 143.768 49.096 143.224 49.776C142.68 50.456 142.181 51.2267 141.728 52.088C141.32 52.904 140.98 53.5613 140.708 54.06C140.028 55.3747 139.257 56.8027 138.396 58.344C137.535 59.8853 136.673 61.2453 135.812 62.424H135.744C135.653 62.424 135.517 62.3787 135.336 62.288C135.2 62.152 135.155 62.0613 135.2 62.016C136.061 60.8373 136.9 59.4773 137.716 57.936C138.577 56.3947 139.303 54.9893 139.892 53.72C140.391 52.768 140.912 51.7933 141.456 50.796C142.045 49.7533 142.725 48.892 143.496 48.212C144.267 47.4867 145.151 47.124 146.148 47.124C147.825 47.124 148.664 47.7813 148.664 49.096C148.664 49.9573 148.392 51.1133 147.848 52.564C147.304 54.0147 146.579 55.8507 145.672 58.072C144.856 59.976 144.244 61.5853 143.836 62.9C143.473 64.1693 143.292 65.1667 143.292 65.892C143.292 66.7533 143.587 67.184 144.176 67.184C144.811 67.184 145.831 66.5947 147.236 65.416C148.46 64.328 149.639 62.9907 150.772 61.404C151.905 59.772 153.129 57.5733 154.444 54.808C154.807 54.0827 155.169 53.176 155.532 52.088C155.94 50.9547 156.28 49.9573 156.552 49.096C156.869 48.2347 157.028 47.804 157.028 47.804C157.799 47.6227 158.66 47.396 159.612 47.124C160.564 46.8067 161.403 46.4893 162.128 46.172C161.675 46.6253 161.017 47.6453 160.156 49.232C159.34 50.8187 158.479 52.632 157.572 54.672C156.711 56.6667 155.963 58.616 155.328 60.52C154.557 62.696 154.172 64.4413 154.172 65.756C154.172 66.844 154.512 67.388 155.192 67.388C155.509 67.388 155.895 67.252 156.348 66.98C156.847 66.708 157.436 66.2773 158.116 65.688C158.705 65.1893 159.249 64.6 159.748 63.92C160.292 63.24 160.813 62.5373 161.312 61.812C161.992 60.8147 162.695 59.6587 163.42 58.344C164.191 57.0293 165.029 55.488 165.936 53.72C166.027 53.584 166.095 53.516 166.14 53.516C166.276 53.516 166.389 53.584 166.48 53.72C166.616 53.8107 166.661 53.9013 166.616 53.992C164.168 58.7973 162.015 62.4013 160.156 64.804C158.297 67.1613 156.28 68.34 154.104 68.34C153.243 68.34 152.608 68.0453 152.2 67.456C151.837 66.8667 151.656 66.0733 151.656 65.076C151.656 64.3053 151.747 63.444 151.928 62.492C152.109 61.54 152.359 60.5653 152.676 59.568C150.999 62.4693 149.389 64.668 147.848 66.164C146.307 67.6147 144.607 68.34 142.748 68.34ZM168.917 68.68C166.967 68.68 165.585 68.0227 164.769 66.708C163.953 65.348 163.545 63.8067 163.545 62.084C163.545 61.0413 163.658 60.0213 163.885 59.024C164.111 58.0267 164.383 57.0973 164.701 56.236C165.199 55.012 165.902 53.72 166.809 52.36C167.761 50.9547 168.894 49.7533 170.209 48.756C171.523 47.7587 172.951 47.26 174.493 47.26C175.762 47.26 176.646 47.6227 177.145 48.348C177.643 49.028 177.893 49.8893 177.893 50.932C177.893 51.1133 177.893 51.2947 177.893 51.476C177.893 51.612 177.87 51.7933 177.825 52.02C177.689 53.244 177.213 54.5133 176.397 55.828C175.581 57.1427 174.561 58.2533 173.337 59.16C172.113 60.0213 170.798 60.452 169.393 60.452C168.577 60.452 167.851 60.2253 167.217 59.772C166.809 61.3133 166.605 62.7187 166.605 63.988C166.605 65.0307 166.786 65.892 167.149 66.572C167.557 67.252 168.169 67.592 168.985 67.592C169.937 67.592 171.07 67.184 172.385 66.368C173.745 65.5067 175.195 64.056 176.737 62.016C178.323 59.976 179.933 57.188 181.565 53.652C181.565 53.6067 181.61 53.584 181.701 53.584C181.837 53.584 181.973 53.652 182.109 53.788C182.29 53.8787 182.335 53.9693 182.245 54.06C180.023 59.092 177.666 62.7867 175.173 65.144C172.725 67.5013 170.639 68.68 168.917 68.68ZM169.053 59.364C170.05 59.364 171.025 59.0013 171.977 58.276C172.929 57.5053 173.79 56.5533 174.561 55.42C175.331 54.2413 175.943 53.0627 176.397 51.884C176.578 51.3853 176.669 50.8187 176.669 50.184C176.669 49.5947 176.555 49.096 176.329 48.688C176.147 48.2347 175.807 48.008 175.309 48.008C174.493 48.008 173.609 48.5293 172.657 49.572C171.705 50.5693 170.821 51.7707 170.005 53.176C169.189 54.536 168.577 55.7827 168.169 56.916C168.033 57.2333 167.897 57.5733 167.761 57.936C167.67 58.2533 167.579 58.5933 167.489 58.956C168.033 59.228 168.554 59.364 169.053 59.364ZM183.841 68.68C180.939 68.68 178.945 68.1587 177.857 67.116C176.814 66.0733 176.293 64.9173 176.293 63.648C176.293 62.4693 176.587 61.404 177.177 60.452C177.766 59.4547 178.355 58.8653 178.945 58.684C179.353 57.9587 179.783 57.1653 180.237 56.304C180.735 55.4427 181.189 54.604 181.597 53.788C182.413 52.156 183.251 50.6147 184.113 49.164C184.974 47.668 185.903 46.4667 186.901 45.56C187.943 44.6533 189.031 44.2 190.165 44.2C190.709 44.2 191.275 44.3133 191.865 44.54C192.454 44.812 192.749 45.084 192.749 45.356C192.749 45.5373 192.658 45.6733 192.477 45.764C192.295 45.8547 192.091 45.8773 191.865 45.832C191.049 45.6053 190.301 45.832 189.621 46.512C188.941 47.192 188.601 48.1213 188.601 49.3C188.601 49.4813 188.601 49.6853 188.601 49.912C188.646 50.0933 188.691 50.2973 188.737 50.524C189.009 51.612 189.281 52.8587 189.553 54.264C189.87 55.6693 190.029 57.0973 190.029 58.548C190.029 59.092 190.006 59.636 189.961 60.18C189.915 60.724 189.802 61.2453 189.621 61.744C189.031 63.4213 188.215 64.7587 187.173 65.756C186.175 66.708 184.951 67.4107 183.501 67.864C184.589 67.9093 185.722 67.8187 186.901 67.592C188.125 67.32 189.167 66.9347 190.029 66.436C191.525 65.5747 192.839 64.396 193.973 62.9C195.151 61.404 196.194 59.84 197.101 58.208C198.007 56.5307 198.823 55.012 199.549 53.652C199.594 53.4707 199.73 53.38 199.957 53.38C200.093 53.38 200.206 53.448 200.297 53.584C200.387 53.6747 200.387 53.788 200.297 53.924C199.39 55.6013 198.461 57.3013 197.509 59.024C196.557 60.7013 195.491 62.2653 194.313 63.716C193.134 65.1213 191.729 66.2773 190.097 67.184C188.329 68.1813 186.243 68.68 183.841 68.68ZM181.053 67.524C181.959 67.524 182.889 67.2293 183.841 66.64C184.793 66.0507 185.473 65.1893 185.881 64.056C186.379 62.6507 186.674 61.0867 186.765 59.364C186.901 57.596 186.969 55.9413 186.969 54.4C186.969 52.8587 186.991 51.68 187.037 50.864C187.127 49.5947 187.467 48.416 188.057 47.328C188.646 46.1947 189.643 45.5147 191.049 45.288C190.731 45.1067 190.414 45.016 190.097 45.016C189.326 45.016 188.533 45.356 187.717 46.036C186.901 46.716 186.289 47.328 185.881 47.872C185.246 48.7333 184.634 49.7533 184.045 50.932C183.455 52.1107 182.798 53.3573 182.073 54.672L180.033 58.344C180.169 58.2987 180.373 58.276 180.645 58.276C181.37 58.276 181.823 58.48 182.005 58.888C182.231 59.296 182.299 59.5907 182.209 59.772C182.073 59.7267 181.937 59.704 181.801 59.704C181.71 59.6587 181.619 59.636 181.529 59.636C180.758 59.636 180.078 59.9533 179.489 60.588C178.945 61.2227 178.559 61.9253 178.333 62.696C178.242 63.0133 178.174 63.3307 178.129 63.648C178.083 63.92 178.061 64.1693 178.061 64.396C178.061 65.484 178.355 66.2773 178.945 66.776C179.534 67.2747 180.237 67.524 181.053 67.524ZM200.869 82.96C199.011 82.96 197.197 82.7107 195.429 82.212C193.616 81.7587 192.143 80.92 191.009 79.696C189.831 78.472 189.241 76.7493 189.241 74.528V73.848C189.241 73.4853 189.287 73.0773 189.377 72.624C189.423 72.1707 189.581 71.944 189.853 71.944C190.125 71.944 190.261 72.1027 190.261 72.42C190.261 72.6013 190.261 72.8053 190.261 73.032C190.216 73.2587 190.193 73.4853 190.193 73.712C190.193 75.7973 190.805 77.452 192.029 78.676C193.208 79.9 194.704 80.7613 196.517 81.26C198.285 81.804 200.031 82.076 201.753 82.076C204.745 82.076 207.533 81.5093 210.117 80.376C212.701 79.288 215.081 77.8147 217.257 75.956C219.479 74.0973 221.496 72.0347 223.309 69.768C225.168 67.5467 226.868 65.3027 228.409 63.036C225.145 62.084 222.108 60.6107 219.297 58.616C216.487 56.576 214.22 54.1053 212.497 51.204C210.82 48.3027 209.981 45.0613 209.981 41.48C209.981 38.0347 210.729 34.9747 212.225 32.3C213.721 29.6253 215.693 27.2907 218.141 25.296C220.635 23.3013 223.355 21.6467 226.301 20.332C229.293 18.972 232.24 17.9293 235.141 17.204C238.133 16.4333 241.148 15.8893 244.185 15.572C247.223 15.2093 250.26 14.9827 253.297 14.892C254.385 14.8013 255.473 14.756 256.561 14.756C257.649 14.756 258.715 14.756 259.757 14.756C260.981 14.756 262.205 14.7787 263.429 14.824C264.653 14.824 265.855 14.824 267.033 14.824C267.351 14.824 267.804 14.892 268.393 15.028C269.028 15.1187 269.345 15.4133 269.345 15.912C269.345 16.2293 269.187 16.4787 268.869 16.66C268.597 16.8413 268.325 16.932 268.053 16.932C267.6 16.932 267.147 16.8187 266.693 16.592C266.285 16.3653 265.764 16.252 265.129 16.252C263.679 16.252 262.183 16.864 260.641 18.088C259.145 19.2667 257.649 20.8533 256.153 22.848C254.657 24.7973 253.207 26.9507 251.801 29.308C250.396 31.62 249.104 33.9547 247.925 36.312C246.747 38.624 245.727 40.7547 244.865 42.704C244.004 44.6533 243.324 46.172 242.825 47.26L243.097 47.532C244.82 45.2653 246.928 42.7267 249.421 39.916C251.915 37.1053 254.635 34.2493 257.581 31.348C260.573 28.4467 263.656 25.6813 266.829 23.052C270.048 20.4227 273.221 18.1333 276.349 16.184C279.477 14.2347 282.424 12.8293 285.189 11.968C287.139 11.3787 289.201 11.084 291.377 11.084C292.556 11.084 293.803 11.2427 295.117 11.56C296.477 11.832 297.747 12.308 298.925 12.988C300.149 13.6227 301.124 14.4613 301.849 15.504C302.62 16.5013 303.005 17.7253 303.005 19.176C303.005 20.672 302.575 22.0547 301.713 23.324C300.852 24.548 299.741 25.6587 298.381 26.656C297.067 27.6533 295.661 28.5147 294.165 29.24C292.715 29.9653 291.4 30.5547 290.221 31.008C289.949 31.0987 289.745 31.144 289.609 31.144C289.201 31.144 288.997 31.008 288.997 30.736C288.997 30.5547 289.065 30.4187 289.201 30.328C289.337 30.192 289.473 30.1013 289.609 30.056C290.244 29.8293 290.856 29.6253 291.445 29.444C292.035 29.2173 292.624 28.9907 293.213 28.764C294.301 28.2653 295.525 27.608 296.885 26.792C298.245 25.976 299.424 25.0013 300.421 23.868C301.464 22.7347 301.985 21.488 301.985 20.128C301.985 19.04 301.645 18.1333 300.965 17.408C300.331 16.6373 299.515 16.048 298.517 15.64C297.52 15.1867 296.477 14.8693 295.389 14.688C294.347 14.5067 293.395 14.416 292.533 14.416C291.4 14.416 290.244 14.5067 289.065 14.688C287.887 14.8693 286.753 15.1413 285.665 15.504C283.081 16.2747 280.248 17.5893 277.165 19.448C274.128 21.2613 271.023 23.4147 267.849 25.908C264.676 28.356 261.593 30.9627 258.601 33.728C255.609 36.448 252.867 39.1227 250.373 41.752C247.88 44.336 245.772 46.6707 244.049 48.756C245.591 50.7053 247.064 52.7453 248.469 54.876C249.92 56.9613 251.393 59.024 252.889 61.064C255.972 59.9307 258.873 58.3667 261.593 56.372C264.313 54.3773 266.467 51.9067 268.053 48.96C268.416 48.3253 268.711 47.6907 268.937 47.056C269.209 46.4213 269.459 45.7867 269.685 45.152C269.776 44.9253 269.935 44.812 270.161 44.812C270.524 44.812 270.705 44.9707 270.705 45.288C270.705 45.3787 270.683 45.4467 270.637 45.492C269.821 48.1213 268.529 50.5013 266.761 52.632C265.039 54.7173 263.021 56.5307 260.709 58.072C258.397 59.568 255.972 60.792 253.433 61.744C254.295 62.8773 255.292 64.1467 256.425 65.552C257.604 66.912 258.873 68.204 260.233 69.428C261.639 70.6973 263.089 71.7173 264.585 72.488C266.127 73.304 267.691 73.712 269.277 73.712C270.955 73.712 272.269 73.2813 273.221 72.42C274.219 71.604 274.921 70.5387 275.329 69.224C275.783 67.9093 276.009 66.5267 276.009 65.076C276.009 63.6707 275.873 62.288 275.601 60.928C275.329 59.5227 275.012 58.1627 274.649 56.848V56.644C274.649 56.3267 274.808 56.168 275.125 56.168C275.397 56.168 275.647 56.5533 275.873 57.324C276.1 58.0493 276.281 58.9333 276.417 59.976C276.599 60.9733 276.712 61.9253 276.757 62.832C276.848 63.6933 276.893 64.2827 276.893 64.6C276.893 67.9093 276.009 70.6747 274.241 72.896C272.473 75.1173 269.844 76.228 266.353 76.228C263.588 76.228 261.117 75.5933 258.941 74.324C256.811 73.0547 254.907 71.4 253.229 69.36C251.552 67.3653 250.033 65.3027 248.673 63.172C245.364 63.988 241.964 64.396 238.473 64.396C237.612 64.396 236.751 64.3733 235.889 64.328C235.028 64.2373 234.144 64.1467 233.237 64.056C230.653 67.5467 227.707 70.72 224.397 73.576C221.133 76.432 217.529 78.6987 213.585 80.376C209.687 82.0987 205.448 82.96 200.869 82.96ZM229.361 61.608C230.948 59.2053 232.444 56.7347 233.849 54.196C235.255 51.6573 236.66 49.1187 238.065 46.58C237.34 45.764 236.456 44.9027 235.413 43.996C234.416 43.0893 233.351 42.3413 232.217 41.752C231.084 41.1173 229.928 40.8 228.749 40.8C228.477 40.8 228.183 40.8453 227.865 40.936C227.593 41.0267 227.321 41.072 227.049 41.072C226.868 41.072 226.777 40.9813 226.777 40.8C226.777 40.4827 227.027 40.256 227.525 40.12C228.024 39.9387 228.568 39.8027 229.157 39.712C229.747 39.6213 230.132 39.576 230.313 39.576C232.036 39.576 233.691 40.0293 235.277 40.936C236.864 41.8427 238.269 42.84 239.493 43.928C240.355 42.3413 241.42 40.4827 242.689 38.352C243.959 36.176 245.364 33.932 246.905 31.62C248.447 29.2627 250.056 27.0187 251.733 24.888C253.456 22.712 255.224 20.8307 257.037 19.244C258.851 17.6573 260.641 16.524 262.409 15.844L258.873 15.776C257.967 15.7307 257.037 15.7307 256.085 15.776C255.133 15.776 254.204 15.8213 253.297 15.912C250.532 16.0027 247.767 16.2067 245.001 16.524C242.236 16.8413 239.493 17.3627 236.773 18.088C234.008 18.8133 231.265 19.8333 228.545 21.148C225.871 22.4173 223.423 24.004 221.201 25.908C218.98 27.812 217.212 30.0333 215.897 32.572C214.583 35.1107 213.925 37.9893 213.925 41.208C213.925 44.3813 214.605 47.328 215.965 50.048C217.371 52.7227 219.229 55.0573 221.541 57.052C223.899 59.0013 226.505 60.52 229.361 61.608ZM239.765 63.376C242.485 63.376 245.296 63.0587 248.197 62.424C247.064 60.6107 245.999 58.7973 245.001 56.984C244.004 55.1253 242.916 53.3347 241.737 51.612C240.377 53.4253 239.085 55.284 237.861 57.188C236.683 59.092 235.436 60.9733 234.121 62.832C235.028 63.0133 235.957 63.1493 236.909 63.24C237.861 63.3307 238.813 63.376 239.765 63.376ZM281.68 68.34C280.139 68.34 279.074 67.9093 278.484 67.048C277.94 66.1867 277.668 65.1213 277.668 63.852C277.668 62.5373 277.895 61.1547 278.348 59.704C278.802 58.2533 279.232 57.0973 279.64 56.236C281.091 53.1987 283.108 50.8867 285.692 49.3C288.322 47.668 291.019 46.852 293.784 46.852C294.147 46.852 294.51 46.852 294.872 46.852C295.28 46.852 295.666 46.8973 296.028 46.988C296.935 47.124 297.388 47.2373 297.388 47.328C297.388 47.4187 297.048 47.5093 296.368 47.6C295.734 47.6907 295.258 47.736 294.94 47.736C292.719 47.736 290.724 48.3253 288.956 49.504C287.234 50.6827 285.76 52.1787 284.536 53.992C283.312 55.8053 282.36 57.664 281.68 59.568C281.046 61.4267 280.728 63.036 280.728 64.396C280.728 65.2573 280.864 65.96 281.136 66.504C281.454 67.048 281.907 67.32 282.496 67.32C283.131 67.32 283.856 66.8893 284.672 66.028C285.488 65.1667 286.282 64.124 287.052 62.9C287.823 61.6307 288.526 60.4067 289.16 59.228C289.795 58.004 290.271 57.0747 290.588 56.44L293.512 50.32C294.283 50.1387 295.054 49.9347 295.824 49.708C296.64 49.436 297.411 49.1413 298.136 48.824C297.366 50.1387 296.618 51.5213 295.892 52.972C295.212 54.4227 294.51 55.8507 293.784 57.256C293.24 58.2987 292.696 59.5227 292.152 60.928C291.654 62.3333 291.404 63.6027 291.404 64.736V65.008C291.404 65.3707 291.45 65.7787 291.54 66.232C291.631 66.64 291.88 66.844 292.288 66.844C292.787 66.844 293.422 66.5493 294.192 65.96C294.963 65.3253 295.507 64.8493 295.824 64.532C297.275 63.0813 298.522 61.472 299.564 59.704C300.652 57.936 301.65 56.1453 302.556 54.332C302.647 54.2413 302.715 54.196 302.76 54.196C303.123 54.196 303.259 54.3773 303.168 54.74C303.168 54.74 303.055 54.944 302.828 55.352C302.647 55.76 302.534 55.9867 302.488 56.032C301.627 57.6187 300.766 59.1373 299.904 60.588C299.043 62.0387 298.023 63.4213 296.844 64.736C296.119 65.4613 295.235 66.232 294.192 67.048C293.15 67.864 292.107 68.272 291.064 68.272C290.067 68.272 289.364 67.8867 288.956 67.116C288.548 66.3 288.344 65.3933 288.344 64.396C288.344 63.7613 288.39 63.1493 288.48 62.56C288.616 61.9253 288.752 61.3813 288.888 60.928C288.571 61.744 288.004 62.7413 287.188 63.92C286.418 65.0987 285.534 66.1413 284.536 67.048C283.584 67.9093 282.632 68.34 281.68 68.34ZM297.822 95.2C297.097 95.2 296.53 94.9507 296.122 94.452C295.669 93.9987 295.442 93.296 295.442 92.344C295.442 91.5733 295.624 90.6667 295.986 89.624C296.304 88.5813 296.825 87.4027 297.55 86.088C298.457 84.456 299.522 82.7787 300.746 81.056C301.97 79.3333 303.24 77.7013 304.554 76.16C305.914 74.6187 307.206 73.2813 308.43 72.148C309.654 71.0147 310.674 70.244 311.49 69.836C311.672 69.3827 311.921 68.6573 312.238 67.66C312.601 66.6627 312.964 65.62 313.326 64.532C313.689 63.3987 314.006 62.4467 314.278 61.676C314.55 60.9053 314.686 60.52 314.686 60.52C314.505 60.792 314.142 61.336 313.598 62.152C313.054 62.968 312.352 63.8747 311.49 64.872C310.674 65.824 309.768 66.64 308.77 67.32C307.773 68 306.73 68.34 305.642 68.34C303.874 68.34 302.99 67.388 302.99 65.484C302.99 63.8973 303.693 61.5853 305.098 58.548C305.506 57.732 305.96 56.7573 306.458 55.624C307.002 54.4907 307.456 53.4027 307.818 52.36C308.226 51.272 308.43 50.388 308.43 49.708C308.43 49.0733 308.204 48.756 307.75 48.756C307.206 48.756 306.662 49.096 306.118 49.776C305.574 50.456 305.076 51.2267 304.622 52.088C304.214 52.904 303.874 53.5613 303.602 54.06C302.922 55.3747 302.152 56.8253 301.29 58.412C300.429 59.9533 299.568 61.3133 298.706 62.492H298.638C298.548 62.492 298.412 62.424 298.23 62.288C298.049 62.152 297.981 62.0613 298.026 62.016C298.933 60.8373 299.794 59.4773 300.61 57.936C301.472 56.3947 302.22 54.9893 302.854 53.72C303.308 52.768 303.829 51.7707 304.418 50.728C305.008 49.6853 305.688 48.824 306.458 48.144C307.365 47.3733 308.272 46.988 309.178 46.988C309.813 46.988 310.334 47.192 310.742 47.6C311.15 47.9627 311.354 48.5293 311.354 49.3C311.354 49.4813 311.332 49.6627 311.286 49.844C311.286 50.0253 311.264 50.2293 311.218 50.456C311.037 51.3173 310.72 52.3827 310.266 53.652C309.858 54.876 309.292 56.3493 308.566 58.072C306.98 61.8347 306.186 64.4413 306.186 65.892C306.186 66.6627 306.436 67.048 306.934 67.048C307.614 67.048 308.634 66.436 309.994 65.212C310.946 64.3507 311.898 63.1267 312.85 61.54C313.848 59.908 314.777 58.1853 315.638 56.372C316.5 54.5587 317.225 52.8813 317.814 51.34C318.449 49.7533 318.88 48.5747 319.106 47.804C319.877 47.6227 320.738 47.396 321.69 47.124C322.642 46.852 323.481 46.5573 324.206 46.24C323.708 46.784 323.118 47.6907 322.438 48.96C321.804 50.184 321.192 51.4987 320.602 52.904C320.013 54.264 319.514 55.42 319.106 56.372C318.472 57.9587 317.928 59.4093 317.474 60.724C317.066 61.9933 316.658 63.24 316.25 64.464C315.888 65.688 315.434 67.048 314.89 68.544C317.021 67.184 318.721 65.892 319.99 64.668C321.26 63.444 322.37 62.084 323.322 60.588C324.274 59.092 325.34 57.2333 326.518 55.012C326.609 54.876 326.722 54.808 326.858 54.808C327.266 54.808 327.357 54.9893 327.13 55.352C326.133 57.2107 325.226 58.82 324.41 60.18C323.64 61.4947 322.801 62.696 321.894 63.784C321.033 64.8267 320.013 65.824 318.834 66.776C317.656 67.6827 316.205 68.6573 314.482 69.7C313.666 71.74 312.737 74.0293 311.694 76.568C310.652 79.1067 309.541 81.5773 308.362 83.98C307.184 86.428 305.937 88.5587 304.622 90.372C303.489 91.9587 302.288 93.16 301.018 93.976C299.794 94.792 298.729 95.2 297.822 95.2ZM298.026 94.248C298.57 94.248 299.25 93.84 300.066 93.024C300.928 92.208 301.88 90.8933 302.922 89.08C303.784 87.5387 304.645 85.8387 305.506 83.98C306.413 82.1667 307.252 80.376 308.022 78.608C308.793 76.84 309.45 75.2987 309.994 73.984C310.538 72.6693 310.901 71.7853 311.082 71.332C310.13 71.876 309.088 72.7147 307.954 73.848C306.821 74.9813 305.665 76.2733 304.486 77.724C303.308 79.1747 302.197 80.6933 301.154 82.28C300.112 83.8667 299.228 85.3853 298.502 86.836C297.414 89.0573 296.87 90.8933 296.87 92.344C296.87 93.6133 297.256 94.248 298.026 94.248ZM329.743 94.656C329.426 94.656 329.131 94.588 328.859 94.452C327.771 93.9533 327.227 92.548 327.227 90.236C327.227 88.2413 327.567 85.7707 328.247 82.824C328.927 79.8773 329.811 76.636 330.899 73.1C331.987 69.564 333.098 65.9373 334.231 62.22C333.959 62.9907 333.483 63.8747 332.803 64.872C332.168 65.824 331.398 66.64 330.491 67.32C329.584 68 328.61 68.34 327.567 68.34C326.026 68.34 324.96 67.9093 324.371 67.048C323.827 66.1413 323.555 65.076 323.555 63.852C323.555 62.5373 323.782 61.1547 324.235 59.704C324.688 58.2533 325.119 57.0973 325.527 56.236C326.978 53.1987 328.995 50.8867 331.579 49.3C334.208 47.668 336.906 46.852 339.671 46.852C340.034 46.852 340.396 46.852 340.759 46.852C341.167 46.852 341.552 46.8973 341.915 46.988C342.822 47.124 343.275 47.2373 343.275 47.328C343.275 47.4187 342.935 47.5093 342.255 47.6C341.62 47.6907 341.144 47.736 340.827 47.736C338.606 47.736 336.611 48.3253 334.843 49.504C333.12 50.6827 331.647 52.1787 330.423 53.992C329.199 55.8053 328.247 57.664 327.567 59.568C326.932 61.4267 326.615 63.036 326.615 64.396C326.615 65.2573 326.751 65.96 327.023 66.504C327.34 67.048 327.794 67.32 328.383 67.32C329.018 67.32 329.743 66.8893 330.559 66.028C331.375 65.1667 332.168 64.124 332.939 62.9C333.71 61.6307 334.412 60.4067 335.047 59.228C335.682 58.004 336.158 57.0747 336.475 56.44L339.399 50.32C340.17 50.1387 340.94 49.9347 341.711 49.708C342.527 49.436 343.298 49.1413 344.023 48.824C342.618 51.2267 341.28 53.7653 340.011 56.44C338.742 59.0693 337.586 61.676 336.543 64.26C336.588 64.532 336.634 65.008 336.679 65.688C336.724 66.3227 336.77 66.7533 336.815 66.98C337.087 67.0707 337.336 67.116 337.563 67.116C338.56 67.116 339.626 66.5947 340.759 65.552C341.938 64.464 343.139 63.0587 344.363 61.336C345.587 59.6133 346.743 57.7547 347.831 55.76C347.922 55.624 348.012 55.556 348.103 55.556C348.194 55.556 348.262 55.624 348.307 55.76C348.352 55.896 348.33 56.0547 348.239 56.236C347.876 56.9613 347.332 57.9813 346.607 59.296C345.882 60.5653 345.02 61.88 344.023 63.24C343.071 64.5547 342.051 65.688 340.963 66.64C339.92 67.5467 338.878 68 337.835 68C337.608 68 337.314 67.9547 336.951 67.864C337.223 69.088 337.359 70.5387 337.359 72.216C337.359 73.984 337.223 75.888 336.951 77.928C336.679 79.968 336.294 81.9627 335.795 83.912C335.342 85.9067 334.798 87.6973 334.163 89.284C333.528 90.916 332.826 92.208 332.055 93.16C331.33 94.1573 330.559 94.656 329.743 94.656ZM330.287 93.364C330.514 93.364 330.786 93.16 331.103 92.752C331.466 92.344 331.919 91.6413 332.463 90.644C333.279 89.1027 333.982 87.244 334.571 85.068C335.16 82.892 335.591 80.6707 335.863 78.404C336.18 76.1373 336.339 74.0747 336.339 72.216C336.339 70.312 336.158 68.7707 335.795 67.592C334.616 70.6293 333.687 73.1227 333.007 75.072C332.327 77.0213 331.738 78.9933 331.239 80.988C331.194 81.1693 331.08 81.6453 330.899 82.416C330.763 83.232 330.604 84.184 330.423 85.272C330.242 86.36 330.083 87.4707 329.947 88.604C329.811 89.7373 329.743 90.712 329.743 91.528C329.743 92.752 329.924 93.364 330.287 93.364ZM351.596 68.34C349.828 68.34 348.944 67.388 348.944 65.484C348.944 63.8973 349.646 61.5853 351.052 58.548C351.46 57.732 351.913 56.7573 352.412 55.624C352.956 54.4907 353.409 53.4027 353.772 52.36C354.18 51.272 354.384 50.388 354.384 49.708C354.384 49.0733 354.157 48.756 353.704 48.756C353.16 48.756 352.616 49.096 352.072 49.776C351.528 50.456 351.029 51.2267 350.576 52.088C350.168 52.904 349.828 53.5613 349.556 54.06C348.876 55.3747 348.105 56.8027 347.244 58.344C346.382 59.8853 345.521 61.2453 344.66 62.424H344.592C344.501 62.424 344.365 62.3787 344.184 62.288C344.048 62.152 344.002 62.0613 344.048 62.016C344.909 60.8373 345.748 59.4773 346.564 57.936C347.425 56.3947 348.15 54.9893 348.74 53.72C349.238 52.768 349.76 51.7933 350.304 50.796C350.893 49.7533 351.573 48.892 352.344 48.212C353.114 47.4867 353.998 47.124 354.996 47.124C356.673 47.124 357.512 47.7813 357.512 49.096C357.512 49.9573 357.24 51.1133 356.696 52.564C356.152 54.0147 355.426 55.8507 354.52 58.072C353.704 59.976 353.092 61.5853 352.684 62.9C352.321 64.1693 352.14 65.1667 352.14 65.892C352.14 66.7533 352.434 67.184 353.024 67.184C353.658 67.184 354.678 66.5947 356.084 65.416C357.308 64.328 358.486 62.9907 359.62 61.404C360.753 59.772 361.977 57.5733 363.292 54.808C363.654 54.0827 364.017 53.176 364.38 52.088C364.788 50.9547 365.128 49.9573 365.4 49.096C365.717 48.2347 365.876 47.804 365.876 47.804C366.646 47.6227 367.508 47.396 368.46 47.124C369.412 46.8067 370.25 46.4893 370.976 46.172C370.522 46.6253 369.865 47.6453 369.004 49.232C368.188 50.8187 367.326 52.632 366.42 54.672C365.558 56.6667 364.81 58.616 364.176 60.52C363.405 62.696 363.02 64.4413 363.02 65.756C363.02 66.844 363.36 67.388 364.04 67.388C364.357 67.388 364.742 67.252 365.196 66.98C365.694 66.708 366.284 66.2773 366.964 65.688C367.553 65.1893 368.097 64.6 368.596 63.92C369.14 63.24 369.661 62.5373 370.16 61.812C370.84 60.8147 371.542 59.6587 372.268 58.344C373.038 57.0293 373.877 55.488 374.784 53.72C374.874 53.584 374.942 53.516 374.988 53.516C375.124 53.516 375.237 53.584 375.328 53.72C375.464 53.8107 375.509 53.9013 375.464 53.992C373.016 58.7973 370.862 62.4013 369.004 64.804C367.145 67.1613 365.128 68.34 362.952 68.34C362.09 68.34 361.456 68.0453 361.048 67.456C360.685 66.8667 360.504 66.0733 360.504 65.076C360.504 64.3053 360.594 63.444 360.776 62.492C360.957 61.54 361.206 60.5653 361.524 59.568C359.846 62.4693 358.237 64.668 356.696 66.164C355.154 67.6147 353.454 68.34 351.596 68.34ZM377.764 68.68C375.815 68.68 374.432 68.0227 373.616 66.708C372.8 65.348 372.392 63.8067 372.392 62.084C372.392 61.0413 372.506 60.0213 372.732 59.024C372.959 58.0267 373.231 57.0973 373.548 56.236C374.047 55.012 374.75 53.72 375.656 52.36C376.608 50.9547 377.742 49.7533 379.056 48.756C380.371 47.7587 381.799 47.26 383.34 47.26C384.61 47.26 385.494 47.6227 385.992 48.348C386.491 49.028 386.74 49.8893 386.74 50.932C386.74 51.1133 386.74 51.2947 386.74 51.476C386.74 51.612 386.718 51.7933 386.672 52.02C386.536 53.244 386.06 54.5133 385.244 55.828C384.428 57.1427 383.408 58.2533 382.184 59.16C380.96 60.0213 379.646 60.452 378.24 60.452C377.424 60.452 376.699 60.2253 376.064 59.772C375.656 61.3133 375.452 62.7187 375.452 63.988C375.452 65.0307 375.634 65.892 375.996 66.572C376.404 67.252 377.016 67.592 377.832 67.592C378.784 67.592 379.918 67.184 381.232 66.368C382.592 65.5067 384.043 64.056 385.584 62.016C387.171 59.976 388.78 57.188 390.412 53.652C390.412 53.6067 390.458 53.584 390.548 53.584C390.684 53.584 390.82 53.652 390.956 53.788C391.138 53.8787 391.183 53.9693 391.092 54.06C388.871 59.092 386.514 62.7867 384.02 65.144C381.572 67.5013 379.487 68.68 377.764 68.68ZM377.9 59.364C378.898 59.364 379.872 59.0013 380.824 58.276C381.776 57.5053 382.638 56.5533 383.408 55.42C384.179 54.2413 384.791 53.0627 385.244 51.884C385.426 51.3853 385.516 50.8187 385.516 50.184C385.516 49.5947 385.403 49.096 385.176 48.688C384.995 48.2347 384.655 48.008 384.156 48.008C383.34 48.008 382.456 48.5293 381.504 49.572C380.552 50.5693 379.668 51.7707 378.852 53.176C378.036 54.536 377.424 55.7827 377.016 56.916C376.88 57.2333 376.744 57.5733 376.608 57.936C376.518 58.2533 376.427 58.5933 376.336 58.956C376.88 59.228 377.402 59.364 377.9 59.364Z" fill="#DFDFDF"/>
</g>
<defs>
<clipPath id="clip0_87_514">
<rect width="391" height="100" fill="white"/>
</clipPath>
</defs>
</svg>
